<svg data-name="b2f3d419-ee96-48d2-b439-7a688bd27379" xmlns="http://www.w3.org/2000/svg" viewBox="0 0 51.4 51.4"><title>EcovillageList</title><path d="M25.7 0a25.7 25.7 0 1025.7 25.7A25.69 25.69 0 0025.7 0zm0 3a22.66 22.66 0 0122.7 22.6 22.17 22.17 0 01-3.8 12.5h-3.3a13.79 13.79 0 003.3-9.3c0-6.4-3.8-11.6-8.5-11.6-2.6 0-4.9 1.6-6.5 4.1l-4.1-2.9-16 8v11.7H6.8a22.61 22.61 0 016.4-31.4A24 24 0 0125.7 3zm12 28.2v-2.9l3.9-2.7a10.87 10.87 0 01.4 2.6zm-2.8 3.5v2.9c-2-.7-3.6-3-4.2-5.9zm2.8 2.9v-3l4-2.8c-.7 2.7-2.2 5-4 5.8zm0-12.6v-4.7a6.1 6.1 0 012.8 2.7zm-2.8.2l-3-2.1a6.3 6.3 0 013-2.8zm0 3.3v2.9l-4.5-3.2a11.71 11.71 0 01.4-2.6zm-7.2.4a13.36 13.36 0 003.3 9.2h-4v-5.4h-8.8v5.4h-5.9v-9.9l13-6.5 3.2 2.2a16.87 16.87 0 00-.8 5zm-6.8 9.2v-2.6h3.4v2.6zm4.8 10.3A22.79 22.79 0 018.9 41h33.6a22.79 22.79 0 01-16.8 7.4zM14.9 18.1a4.56 4.56 0 10-2.3-6.1 4.61 4.61 0 002.3 6.1zm.3-4.9a1.91 1.91 0 011.7-1.1 2.35 2.35 0 01.8.2 1.83 1.83 0 01.9 2.4 2.41 2.41 0 01-1 1 1.71 1.71 0 01-2.3-1.1 1.2 1.2 0 01-.1-1.4z" fill="#1fc155"/></svg>